<svg xmlns="http://www.w3.org/2000/svg" viewBox="0 0 150 50" xmlns:xlink="http://www.w3.org/1999/xlink"><defs><path d="M58 256a198 198 0 01396 0" id="b"/><path d="M26 256a230 230 0 10460 0" id="a"/></defs><rect width="150" height="50" rx="5" fill="#0056b3"/><path d="M9.4 26.26a22.44 22.44 0 1044.87 0 22.44 22.44 0 10-44.88 0" fill="#ffd800"/><path d="M10.36 26.26a21.47 21.47 0 1042.94 0 21.47 21.47 0 10-42.94 0" fill="#3c3185"/><path d="M15.46 26.26a16.37 16.37 0 1032.74 0 16.37 16.37 0 10-32.74 0" fill="#fee006"/><path d="M16.52 26.26a15.31 15.31 0 1030.62 0 15.31 15.31 0 10-30.62 0" fill="#3b5998"/><g fill="none" stroke="#FFD800" stroke-width=".3"><path d="M38.08 13.14c2.38 1.06 3.96 3.26 3.52 4.76s-2.73 1.84-5.1.7c-2.47-1.14-3.96-3.26-3.52-4.75s2.72-1.85 5.1-.7"/><path d="M41.95 13.94c2.82 2.64 4.67 5.9 4.4 8.88-.26 4.76-5.37 6.87-11.35 4.67-5.98-2.11-10.56-7.66-10.3-12.32.18-1.67.8-3 1.94-3.96"/><path d="M46.7 32.06a11.45 11.45 0 01-7.12 2.56c-8.1.35-17.16-5.55-20.16-13.2-.52-1.32-.79-2.56-.96-3.79m19 23.5c-7.92.17-16.54-5.02-21.38-12.59m6.16-14.6c7.66-3.61 18.74.52 24.73 9.06a24.55 24.55 0 01.61.97"/><path d="M21.62 38.4a11.9 11.9 0 01-.44-2.55C20.57 26.7 27 17.37 35.7 15.17c2.64-.7 5.28-.7 7.57 0"/><path d="M36.4 13.14c5.29 6.6 4.94 17.34-.78 23.94a14.56 14.56 0 01-7.57 4.66m5.54-31.24c.97.7 1.94 1.59 2.82 2.64"/></g><g fill="#FFD800" style="font:700 49px Arial,serif" text-anchor="middle"><text dx="0 10 10 10 10 10 10 10 10 10 10 10 10 10 10 10" transform="matrix(.088 0 0 .088 9.3 3.73)"><textPath xlink:href="#a" startOffset="50%">PRO BONO PUBLICO</textPath></text><text dx="0 7 7 7 7 7 7 7 7 7 7" transform="matrix(.088 0 0 .088 9.3 3.73)"><textPath xlink:href="#b" startOffset="50%">МИРОТВОРЕЦЬ</textPath></text><path d="M34.5 11.6h-.8l-.2.1c-.3 0-.3.1 0 .1l.1.1h-.7l-.4-.2v-.1h.1-1.5l.4.1h.2c.1.1 0 .1 0 0l-.3.1h1v.2h1.4c.1 0 .4.2.3 0H34h.6-.3l-.4-.2 1 .3h-.2.2V12h.6l.1.3.6.1.2.2.7.2v-.1l-.4-.2h.3l.3.2.7.4c.4 0 1 .6 1 .7l.5.4.4.3.2.1v-.1l.3.2.2.2v-.2l.3.3.5.3.1-.1-.1-.1V15l-.1-.1h-.1l-.1-.3-.5-.3-.3-.3-.3-.2-.2-.1-.3-.3-.7-.4-2.3-.7-1.4-.6-.5-.1zm-.8.4h-.1zm2.9.2z"/><path d="M33.3 11.6h.2-.2zm-.2 0zm1.8.5v.2h.4v-.1l-.4-.1zm-2.7-.6l-.4-.1a11.3 11.3 0 00-3.1.4h.3a7.1 7.1 0 011.8-.2h.5a14.5 14.5 0 00.9-.1zm3.5 1l.5.2h.1l-.7-.3zm-.6 0h.2l-.1-.2-.1.1zm-.7-.2H34c-.1 0-.1 0 0 0h.7-.3zm2 .4h-.2v.1h.2v-.1zm-1.6-.3l.2.1v-.1h-.2zm1 .3v.1-.1zm-1.5-.3H34v.3c.2 0 0 0 0 0v.4h.5l.1-.1h.1l.1-.1-.4-.1.1-.1.1.1.4.2-.2-.4h-.4l.1-.2h-.3zm0 0zm.8.2v.1-.2.1zm.2.1l.1.1c.1 0 .1 0 0 0v-.2l-.1.1zm-2-.3h-.9l-.6-.1-.8-.2h-.3V12h-.4a2.5 2.5 0 00-1.3.2v.2h.8l.1.1-.1.2c.3 0 .3.2.2.3l.2.1.2.1.1-.1h.1v.1h.4l.7.2h.6l.8.1h.4l.2-.1c-.1 0 0 0 0 0l.2.1v-.8h-.1.1l-.5-.3h-.2zm8.2 2.9v.1-.1h-.2zm-.5 0zm-11.8-2H29l-.2.1-.2.1c.2.3.2.4.6.2v-.4h.3l-.2-.2-.1.1zm3.5 1h-.2l-.1.2h-.1.6v-.3h-.3zm.4 0v.3l-.2-.1.3.1-.1-.2zm-.5.3zm-2.2.7l-.2-.1H29l-.3.1h.1-.4c0-.2 0-.1-.5 0h-.1l-.1.1v.1l-.3.1.5.1-.2.3-.4.2-.2.1H27v.1h1.5c0-.4.3-.5.6-.4l.5-.2.4.2h-.4l-.6.3-.3.2.2.2.6.1.4-.1.2-.1.2-.4.3-.2h.2l.2-.2h.2v-.1l.2-.1-.7-.3h-.4zm-2 0h-.2.1zm-1.1-.6H27l-.1.1h-.2v.1h-.2s.2 0 0 0v.1h-.1l-.1.2H26l-.2.1h-.2c0 .2-.1.2-.2.1l-.2.1.2.1v.1l.2.2v-.1h.3v-.1l.3-.2.3-.2.1-.3h.5v-.1h.1v-.2zm-1 0H26l-.2.1-.2.2h.6v-.1c.3 0 .2-.2 0 0v-.2z"/><path d="M27.2 16l-.4.2v.1l-.7-.2H26l-.7-.2.1-.1h-.2l-.1-.1-.1.3-.5.5H24v-.4l-.2-.1-.5.2c-.5.4-.7.5-.6.6l-.1.3v.2l.2.2h.3c.2-.2.5-.3.6-.1l.3-.2h.2v.4h.2l.2.2v.3l-.6.9-.2.3-.2-.2-.1-.2-.1.4h.8v-.1c0-.3.2-.3.3-.2v.4-.4l.1-.2.1-.6.2-.2c.3-.3.3-.3.3-.1-.1 0-.1 0 0 0l-.2.9v.2l-.1.2-.3.5v.5h.1l.1.2.1-.6h.2v.1h.1l.2.1.2.2h.2V20l.2-.4h.5v-.1l.2-.1h.5-.1v.5l-.1.1c0 .1 0 .3.2.3V20l.2-.2h.3l.5.1h.2l.1-.2v-.4l-.2-.2v-.6l-.2-.2h.1l.2-.2.1-.3.2-.4.2-.2.2-.3-.4-.2v.1l-.4.2.1-.3-.5.1-.1.6-.1-.2V17h-.3.1l-.2-.2-.3-.1.1-.2-.1-.1v-.2h.2l.2-.2h.2-.3z"/><path d="M27 16.2zm1 .5v-.2zm.3 0v.1h.2-.2zm12.3 4.4l-.3.1v.4c0 .5 0 .5-.2.4s-.3 0-.4.2l-.6.2-.1-.1-.7-.1-.4-.3h-.4l-.2.4-.5-.2c-.1 0-.3-.2-.7 0l-.5.3.1-.1-.3-.1-.1-.2-.4-.2h-.3v-.1l-.2-.3-.2-.4v-.2h-.7l-.2-.2c0-.2-.2-.4-.3-.3h-1l-.2-.1.1.2v.1l-.3.1v.4l-.4-.1v-.1l-.2-.2h-.4l-.1-.2-.3-.2c-.1-.2-.6 0-.6 0v-.1l-.2.3-.3.8h-.4v.3l-.1.4-.2.1-.2.1v-.3l-.3-.3-.4-.5v.3H27c-.2 0-.4-.3-.5-.4s-.1-.4-.4-.4l-.4-.1-.3-.1c-.1-.1-.4-.1-.4 0h.1l-.1.2h-.2v.6c0 .2.2.3.3.2l.1.1.1.3h.4l.1.2-.1.1-.2.2-.4.5-.2.1h-.3l-.2-.2-.2-.2-.3-.2-.2-.3v-.1l-.2-.3v-.2l-.2-.3H23l-.2.2-.2-.4v-.3l-.1-.5v-.4l.2-.1.1-.3.2-.2v-.4l-.2-.2-.5-.6-.2-.2.1-.2h-.5l-.4.1-.3.2h-.3v.1h-.2l-.2.3c-.4 0-.5 0-.5.3l-.8 1a7.8 7.8 0 00-1 2.7v1.5c.3 0 .4.3.4.5v.5l.1.3v.3l-.1 1-.1.6v.6a31.8 31.8 0 000 1.5l-.1.6v.6l.8 2.7c.6 1.4.6 1.4 1.1 1.9.3.4.5.4.7.2l.1-.4h.2c.3 0 .3 0 0-.5v-.3h.7l.4-.1v-.2l.1-.6v-.2l-.2-.7.1-.2v-.2l.5-.5h.3l.6-.3c.6-.1.8-.2 1.4-.7a5 5 0 00.7-.6v-.2c.1-.1 0-.1-.1-.2l-1.2-.3-.2-.2-.2-.1v-.2l.2-.1a3.4 3.4 0 00-.4-1v-.9l.1-.7v-1l.2-.6a19.8 19.8 0 000-.6l.2.2c.2.1.2.1.2.6l-.2.5.1.2v2.4c-.2.2-.2.8 0 .8l1 .4h.5l.4-.1c0-.1.1-.2.5-.1h.5l.2-.1h.3v-.2l.3-.2h.1l.4-.2-.1-.1-.2-.4c-.4-.1-.3-.3-.3-.5l.1-.2-.2.1c-.4.2-.5.2-.6 0H27v-.6l-.1.1v.2-.5l-.1-.2V25l.1-.3.2-.1.1.2.1.2v.4l.3.3c.2.4.2.4.5.5.2-.1.2-.1.1 0l.1.2.4.3.5.3h.5l.4.2.1.1v.2h.1l.1.2h.1v.2l.3.2c.2.1.1.1 0 .2l-.3-.1.2.3.1.3h.2l.2-.2.2-.2-.2.5a4 4 0 00.2 1.8l.2 1c-.1.2 0 .4.2.4l.1-.1h.2l.2-.3h.1l.2-.4.3-.8.4-.2h.1l.2-.2.4-.2.4-.2.2-.3.4-.1s.2-.1 0 0l.2-.1h.4l.2-.1v.2l.2.4h.1l.1.3.1.1v.8h.2l.2-.2h.2l.1.1v.1l.1.6v.2l-.3 1c.2 0 .4.3.4.7s0 .5.3.7h.2l.2-.4-.1-.2-.3-.6-.2-.2-.1-.2v-.4l.2-.4.1-.2v.1h.1c.3.1.4.1.4.4h.2v.2h.2v.4l.2-.2v-.2l.2.1.2-.2h.2l.3-.5c0-.3 0-1-.3-1l-.2-.3v-.6l.6-.4.1.2v.1h.1l.3-.3.3-.1V29h.2l.2-.1.4-.2.1-.3v-.1l.2-.2a2.8 2.8 0 01.3-.9V27l-.1-.2h-.1l.3-.2h-.2v-.5l-.3-.2v-.3h-.2c0-.1.2-.6.4-.7l-.2-.2-.2.1-.1.1-.2-.2v-.2l.3-.2V24h.1l.1.2v.1h.1l.4-.2v.3c.2 0 .4.2.3.3v.2l.1.1v.3h.2l.1-.5-.3-.7c-.2 0-.2-.1 0-.4V23l-.1-.3.1-.1-.1-.5v-.3l-.2.1-.1.1-.1-.1-.3-.2-.3-.1c-.3-.5-.4-.6-.7-.5zm3.1.8h-.4v.2l.2.3-.1.2v.2h.2v-.4l.2-.1v-.5zm0 1v1.2l-.2.1.1.3h-.2l-.3.5-.1.3.3-.1c0-.3.2-.4.3-.3l.1.1.1-.2v-.1l.3-.3c0-.2 0-.2 0 0v-.3l-.2-.7-.2-.5z"/><path d="M24 17.9h.2-.1zm-.7-.3v.1zm.3.6v.3l.3-.2c.2-.3 0-.2-.2-.1zm19.8 7v.2c.1 0 0 0 0 0l.1-.1V25zm-19-5.2l-.1.3h.2V20h-.1zM43 25.4v.2c0 .1.1 0 .1 0v.2l.2.1v-.3c0-.3-.1-.3-.3-.2zm-19-4.6l.3.3V21l-.2-.1zm.8.3zm.3.8l.3.1h.2l-.5-.1zM42 28.2v.6l.1-.3v-.3zm0 1.5l-.1.8v.2-.1l.2.1c0 .1-.1.2 0 .1l.1.1.1-.2.2.1-.1-.1H42v-.5l.2-.3c0-.3 0-.3-.2-.2zm-2.1 0l-.2.3c0 .3.3.1.4 0s0-.3-.3-.2zm2.9 1.2l-.1.2h.1V31zm-.3.2zm-.5-.2v.2-.2zm.7.4c-.1-.2-.1-.2 0 0zm-.6 0c.1.2.1.3.1 0h.1-.2zm.4.2s-.1.2 0 .1v-.4.3zm-.2 0v.3h.1v-.3zm.4.1v.2h-.2v.2H42v.4-.2h.2v.1h.1c0 .1.3.1.2 0V32h.1v-.6l-.1.1zm-1 0v.1zm3.5 1v.3-.2l.2-.1h-.2zm-.7.3l-.2.1-.4.4-.2.2v-.3l-.3.2h-.1l.2.2v-.1c-.1.1-.2.1-.1.2v.2c0-.2.1-.3.2 0l.1-.2.2.1-.2.4h.2l.2-.1V34l.4-.2.2-.2.2-.3V33l-.4-.2zm-3.1-.8h-.1.1zm-.2.5H41v.3l-.2.1-.2.1-.4.3-.3.3-.2.2-.2.2h-.2l-.2.3v.2l.1.1v.2l.4.2.3-.1h.2a.5.5 0 00.4-.4l.1-.2.2-.2.3-.3h.2l-.2-.2H41v-.4l.2-.2.2-.2-.3-.1v-.2zm1.6.6l-.1.4h.1v-.1l.1-.3h.1-.2zm-.6.4h-.3l-.4.1-.1.1-.1.4-.3.4-.2.6h.2l.2-.4v-.2h.2v.3l.2-.1.1-.3h-.2l.1-.2.3-.2h-.4c0 .2-.2 0 0 0 0-.1 0-.3.4-.4l.3-.1c.1-.1.1-.1 0 0zm.5.2l-.1.1h.2-.1zm.1.3h-.1.2l.2-.1h-.3zm.6.2v-.1zm.5.3c-.3.6-.9 1.5-1 1.3v-.4l.2-.3-.4.3-.2.2-.3.1-.1.2-.2.3h-.7l-.2.3v.1l-.2.1v.1l-.3.1h-.1l-.2.3-1.2.7h-.4l-.3.2-.4.5-.2.1-.2.1v.6h-.3l-.2.2c.1 0 1-.2 1.7-.6l1.2-.5 1.2-.7c1.1-1 2.2-2 2.6-2.7l.2-.1-.2-.1.1-.1.2-.4-.2.1zm-1.8-.4V34zm.2.2l.1-.1zm-3.1-.7c0-.2 0-.2 0 0zm-6.6-1.5l-.1.6.3-.1.1-.2-.3-.6v.3zm3.7 1.2v.3l.2.2.2.2v.3l.3.1v.5l.5.5.4.3.2-.4V35H38v-.3h-.2v-.3h-.1l-.1-.2h-.3V34l-.4-.2-.1-.2s0-.2-.3-.3h-.3zm5.1 1.5l.1.2.1-.3h-.2zm.4.4l-.4.6.6-.6h-.2zm.6.4h-.2.2c.2-.1.2-.1 0 0zm-6-1.4h.1-.2zm1.8.5H38v.3h.3V35l-.1-.1-.1-.1zm2.9.9h-.4.4v-.1zm-2.5-.7v.1h.1V35zm-2-.3v.2-.2zm3.7 1v.2H40h.2l.2-.1h-.2zm.3.2v.1h.1-.1zm-1-.1v-.1zm.4.1s0 .1 0 0h.1zm-1-.1h-1v.2h1.7l-.6-.2zm.8.1v.1l.1-.1h-.1zM24 34v.3h-.2l-.2.1h-.1l-.4-.1c-.2 0-.2 0-.2.3v.9c0 .3.1.3.4.5h.2l.2-.1a6.3 6.3 0 00.4-1v-.1l.2-.2-.3-.6z"/></g><path d="M11.7 36.7c0-.7-.5-1.3-.7-2a23 23 0 01-.3-16.4 22 22 0 013.9-6.6 22.7 22.7 0 0127.7-5.5 23.6 23.6 0 018 7 22.6 22.6 0 013.5 18c-.5 1.9-1.2 3.6-2 5.4.8.1 1.8.1 2.5-.3l.7-.5h1a3.8 3.8 0 001.8-.6c1.5-1 1.7-2.5 2-4.1l.6-4.7c0-1.1.2-2.1.4-3.2 0-.9.2-1.8-.2-2.6a3.9 3.9 0 00-3-2.4c-.6-.1-2 0-2.4-.6l-.5-1L54 15A25 25 0 0033.3 1.3a25.4 25.4 0 00-21 9.3 23.5 23.5 0 00-2.7 4.2l-.8 1.7c-.1.4-.2.8-.5 1-.5.7-1.6.5-2.3.7a4 4 0 00-3 2c-.6 1.2-.4 2.4-.2 3.7l.3 2.6.6 4c.2 1.7.3 3.5 2 4.6.4.3 1 .6 1.7.6h1.2c.3.2.5.6.9.7.6.3 1.5.3 2.2.3z" fill="#FFD800" stroke="#FFD800" stroke-width=".5"/><g style="font:italic 700 18px Arial,sans-serif" fill="#FFD800"><text x="65" y="23">Радіо</text><text x="65" y="40" font-size="11.2">Миротворець</text></g></svg>