<svg width="512" height="512" xmlns="http://www.w3.org/2000/svg" xmlns:xlink="http://www.w3.org/1999/xlink"><style>#t:target~use{opacity:.1}#u:target~use{opacity:.3}</style><defs><path d="M26 256a230 230 0 1 0 460 0" id="a"/><path d="M58 256a198 198 0 0 1 396 0" id="b"/><g id="c"><path d="M1 256a255 255 0 1 0 510 0 255 255 0 1 0-510 0" fill="#ffd800"/><path d="M12 256a244 244 0 1 0 488 0 244 244 0 1 0-488 0" fill="#3c3185"/><path d="M70 256a186 186 0 1 0 372 0 186 186 0 1 0-372 0" fill="#fee006"/><path d="M82 256a174 174 0 1 0 348 0 174 174 0 1 0-348 0" fill="#3b5998"/><g fill="none" stroke="#FFD800" stroke-width="3"><path d="M327 107c27 12 45 37 40 54s-31 21-58 8c-28-13-45-37-40-54s31-21 58-8"/><path d="M371 116c32 30 53 67 50 101-3 54-61 78-129 53-68-24-120-87-117-140 2-19 9-34 22-45"/><path d="M425 322c-20 17-48 28-81 29-92 4-195-63-229-150-6-15-9-29-11-43m216 267c-90 2-188-57-243-143m70-166c87-41 213 6 281 103a279 279 0 0 1 7 11"/><path d="M140 394c-3-9-4-19-5-29-7-104 66-210 165-235 30-8 60-8 86 0"/><path d="M308 107c60 75 56 197-9 272-25 28-55 46-86 53m63-355c11 8 22 18 32 30"/><path d="M78 256a178 178 0 1 0 356 0 178 178 0 1 0-356 0" stroke-width="8"/></g><g fill="#FFD800" style="font:700 49px Arial,serif" text-anchor="middle"><text dx="0 10 10 10 10 10 10 10 10 10 10 10 10 10 10 10"><textPath xlink:href="#a" startOffset="50%">PRO BONO PUBLICO</textPath></text><text dx="0 7 7 7 7 7 7 7 7 7 7"><textPath xlink:href="#b" startOffset="50%">МИРОТВОРЕЦЬ</textPath></text></g><g fill="#FFD800"><path d="M286 89h-7l-1 1h-1l-2 1c-3-1-3 1 0 1l1 1-1-1h-7l-4-1v-2l1 1-1-1-4 1-8-1-1 1h-2l4 1 3-1c1 2 0 2-1 1l-3 1h11v2l3-1 8 2h4c2 0 5 1 4-1h-2l6 1-3-2-5-1 11 3-2 1h3v-2l7 1 1 2 6 2 3 2 8 2-1-1-4-2h3l4 2 8 4c4 1 11 7 12 9l5 4 4 4 3 1v-2l3 3 3 2-1-2 1-1 3 4 5 3 2-1-2-1 1-1-2-1 1-1h-2l-1-2 1-1c-2 1-6-2-7-3l-3-3-3-2-3-2-3-3-8-5-26-8-16-6-6-2zm-9 5h-1 1zm33 2h1-1z"/><path d="m273 89-1 1h3l-2-1zm-3 1h1-1zm21 5v2l4 1v-2l-4-1zm-31-7-4-1a129 129 0 0 0-36 5h4a81 81 0 0 1 20-2c-1-2 1-1 6-1a165 165 0 0 0 10-1zm40 11-1 1 7 2 1-1-8-2zm-7 0h2l-1-2-1 2zm-8-2h-4c-2 0-2 0 0 0l3 1 4-1 1 1-4-1zm22 5h-1l-1 1 3 1v-1l-1-1zm-17-3 2 1v-2l-2 1zm11 3 1 1-1-1zm-17-4-2 1-1 1 1 2c2 0 0 0 0 0l-1 4h7l1-1h1l1-1-5-1 2-1 1 1 4 2-2-4-2-1c-2 0-3 0-2 1l-1-1 2-1-4-1zm1 1h-2 2zm8 2 1 1-1-2v1zm2 1 2 1c1 0 1 0 0 0l-1-2-1 1zm-23-3-9-1-7-1-9-2-4 1 1-2-2 1-3-1-1 1a29 29 0 0 0-14 1v2l4 1 5-1 1 2-1 2c3 0 3 2 2 3l3 2 2 1 1-2 1 1c1 0 1 0 0 0v1h5l7 2 3-1 4 1 9 1 2 1h-1l2-1h2l2-1c-1-1 1-1 0 0l2 1 1-4v-3l-1-2h-1l2-1-6-2-1-1-1 1zm94 32-1 2 1-2h-2zm-6 0 1 1-1-1zm-134-23h-2l-1 1-2 1-2 1 1 1c1 2 2 3 6 1l1-4 2-1-2-1-1 1zm40 12-2 1h-1l-1 1-1 1h4l3-1-1-1 1-2-4 1zm4 1v2l-2-1 4 2-2-3zm-5 3zm-25 7-3-1-2 1h-10l-3 1h1-1l-4-1c-1-2-1-1-6 0l-1 1-1 1-1 1-2 1 5 1-2 3-4 3-3 1-1-1v2l5 1 5-1 3-1c2 2 3 1 4 0 1-3 4-5 7-4l6-2 4 2v1h-4l-7 3-3 2-1 1 3 2 7 1 4-2 2-1 3-4 3-2 2-1 3-2 2 1v-2h-1 1l2-1v-1l-8-2-4-1zm-24 1-1-1 1 1zm-12-7h-2l-1 1h-2v1h-2s2 0 0 0l-1 1-1 1-1 1c-1 1-2 2-3 1s0 0-2 1l-1-1-2 1c1 2-1 2-2 1l-2 1 2 1 1 1 1 2h1v-1l3 1v-2l3-2 1-1 2-2 2-3 2 1 3-1v-1l2-1-1-1zm-12 0h-1l-2 1h-1l-2 2 4 1 3-1 1-1c2-1 1-2-1-1l-1-1z"/><path d="m203 140-4 2-1-1v2l-7-2v-1l-2 1-8-3 1-1-2 1h-1l-1-2-1 3-5 6h-3l-3 1-1-2v-4l-1-1-6 3c-6 4-8 5-7 7l-1 3-1 2 2 1 1 2 4-1c2-2 5-3 6-1l4-2 2 1v1l1 2h1l3 2-1 3-4 13-2 3-2-2-2-2-1 4 1 1 1-1 2 1 1-1h2v-1c1-3 2-3 4-2l-1 1 1 2v-5l1-2 1-7 2-2c3-3 3-3 4-1l-1 1c-1 0-1 0 0 0l-2 9 1 3-2 2-3 5-1 3 1 3 1 1 1 1 1-6 2-1 1 2 1-1 2 2 2 2h2l1-1 1-4h3l3-1 1-1 2-1 5 1h-1l1 1-1 2-1 1c-1 1-1 3 2 3l1-1 1-2 4-1 6 2 2-1 1-1 1-2-1-1-1-2-1-2-1-1 1-5-1-1-1-2 1-1 2-1 1-4 2-5 3-2 2-3-1-1-4-2v2l-4 2 1-3-6 1-1 6-1-2-1-2h-2l1-1-3-1-3-2 1-2-1-1-1-1v-1l2-1 1-1 3-1 2-1h-1l-3 1z"/><path d="M201 142h1v-1l-1 1zm11 5 1-2-2 1zm4 1v1l2-1h-2zm140 49-4 2v4c0 6 0 6-2 5s-4-1-5 2l-7 2-1-1-8-1-4-3-5-1-2 5-6-2c-1-1-3-2-8 0l-5 3 1-1-3-1-2-2-4-3h-3l-1-1-2-3-2-5-1-2-3 1-3-1-1-1-2-1c0-3-2-5-4-4h-10l-2-1 1 2-1 2-2 1-1-1v5l-4-1-1-1-1-2-5-1-1-2-3-2h-1c-1-2-6 0-6 1l-1-2-2 3-3 9h-4l-1 4-1 5c1 1-1 1-2 1l-2 1-1-4-2-3h-1l-4-6-1 4h-5c-2 0-4-4-5-5s-2-4-5-5l-5-1-3-1c-1-1-4-1-5 1h2l-2 1v1h-2v1l1 1-1 4 1 1c0 2 1 3 3 2l1 1 1 3 5 1 1 2-2 1-2 2-4 5-3 2-3-1-2-2-3-2-3-2-2-4-1-1-1-3-1-2-2-4-3 1c-2 2-4 2-3 1l-2-4 1-4-2-5v-5l2-1 2-3 2-2v-3l-1-2-1-2-1-1-5-6-2-2 1-3h-6c-1 0-3 0-5 2l-3 2-3-1v2l-2-1-1 1-2 3c-4 0-5 1-6 4l-9 11c-2 2-10 20-11 31l-1 9v4l2 4c2 0 4 3 3 6v5l2 4v3l-2 11-1 7v7a361 361 0 0 0 1 17l-2 7v7l9 30c7 16 7 16 13 22 3 4 6 5 8 2l1-4 2-1c4 1 4 1 1-5v-3l3-1h4l5-1v-2l1-7-1-2-1-8 1-2-1-3 6-5v-1h4l7-3c6-1 9-2 15-7a56 56 0 0 0 8-7v-3c2-1 1-1-1-2l-13-3-3-2-2-2v-2l2-1a39 39 0 0 0-4-12l-1-1 1-9 1-8 1-5-1-3 1-3 1-7a225 225 0 0 0 1-7l1 3c3 1 3 1 3 6l-2 6 1 3-1 8 1 4v15c-2 2-3 9-1 9l13 4h5l4-1c1-1 2-2 6-1l3 1 3-1 2-1h3v-2l4-2 1-1 4-2-1-1-2-4c-4-2-3-4-3-6l1-3-3 2c-4 2-5 2-6 0l-4-1 1-6-2 1v2-5l-1-3v-4l1-4 2-1h1l1 2 1 3v4l3 4c2 4 2 4 6 5 2-1 2-1 1 1l1 2 5 3 5 4h6l5 2 1 1v2l1 1 1 2h1l1 2 3 2c2 1 1 1-1 2l-3-1 2 3 2 4 2-1 2-1 2-3-2 6a46 46 0 0 0 2 21l2 10c-1 3 1 5 3 5l1-1 2 1 1-1 2-3 1-1 2-4 3-9h1l4-2 1-1 2-1 5-3 4-2 3-3 4-2h1s1-1 0 0l2-1 4 1v-1l2-1 1 3 2 4-1 1h2l1 2-1 1 2 1v5l-1 2 1 2 2-1 2-1 1-1h2l1 2-1 1 2 6v3l-3 11c2 0 4 4 4 8s0 6 3 8l3 1 2-5-1-3-4-6-2-3-1-2 1-5 1-4 2-3v2h1c3 1 4 1 4 4h2v2l3 1v4l2-2v-2l2 1 2-3h3l3-5c1-4 0-11-3-11l-2-4-1-6 1-1 6-4h1l1 2v1l1-1 3-2 3-2v-1h2v-1h1l2-1 4-2v-1l2-3v-1l2-2a32 32 0 0 1 3-10l1-3v-1l-2-2-1 1 1-2 2-1-2-1 1-1-1-2-3-2v-3h-2c0-2 2-7 4-8v-1l-2-1-2 1-2 1-2-2 1-3 2-2 1-4h1l1 3-1 1h2l4-2h1l-1 3 1 1c2-1 4 1 3 2v3l1 1v3h2l2-5-4-8c-2-1-2-2 0-5l1-3-1-1v-5l-1-3 1-2-1-5v-4l-2 2-2 1-1-2-3-2-3-1c-4-5-5-7-8-6zm35 9-2 1-3-1 1 3 1 3-1 2 1 3h1l1-1-1-2 1-1 2-1-1-2 1-4h-1zm0 12-1 1v1l1 2v9l-1 1-1 1 1 3-2 1-4 5-1 3 3-1 1-1c0-3 2-4 3-2l1 1v-1l1-1-1-2h1l3-3c0-2 0-2 0 0l1-4-3-7c1-3-2-6-2-6z"/><path d="M168 161v1l1-1h-1zm-9-3 1 1-1-1zm4 6-1 4 4-3c2-3-1-2-3-1zm225 79h-1v3c2 0 0 1 0 0l2-1v-2h-1zm-218-57-1 4h1l1-1 1-1-1-2h-1zm213 60-1 3c1 1 2 0 2-1l1 3 1 1 1-4c-1-3-2-3-4-2zm-215-52 3 4-1-3-2-1zm8 4zm4 8 3 2 2-1-5-1zm191 72-1 5 1 2 1-3c1-5 1-8-1-4zm0 17-2 9 1 2v-1l1 2c0 1-1 2 1 1l1 1 1-2 2 1-1-2h-1l-2 1v-6l2-4c0-3 0-3-3-2zm-25 1c-1 1-3 2-2 3 1 3 4 1 5-1s0-3-3-2zm33 13-1 2 2 1-1-3zm-3 2zm-6-2v2l1 1v-1l-1-2zm8 4c-1-2-1-2 0 0zm-6 1c1 2 1 3 1 0l1-1-2 1zm4 1c0 1-1 3 1 2v-1l-1-2 1-2-1 3zm-2 1v3l1-1c1-3 0-5-1-2zm4 1v2l-2 1v1l-3 1-1 4v-2l2-1 1 1v1h1c1 1 3 1 2-1v-1l2-1v-6l-2 1zm-11 0-1 1 1-1zm40 12v2-2l2-1-2 1zm-8 2-3 2-4 4-2 2-1-2v-1l-3 2-1 1 2 1 1-1v1c-2 1-3 1-2 2v2c0-2 2-3 3-1l1-1 2 1-2 5 2-1 2-1 1-1 4-2 2-2 2-4 1-3-1-1c0 1 0 1 0 0l-4-2zm-36-9-1 1 2-1h-1zm-2 6-2 1v2l-2 2-3 1-4 3-4 3-2 3-2 2h-2l-1 1-2 2v3l2 1-1 2 5 2 3-1 3 1c3-1 4-4 4-5l2-2 2-3 3-3 2-1-2-1-1-1 1-2-1-1 1-1 1-2 1-1 1-1 1-1-4-1 1-2zm18 7-1 5 2-1v-1l1-3 1-1-1 1h-2zm-6 4h-4l-4 2-2 1-1 4-3 5-2 7 2-1 2-4 1-2h1v3h1l2-1 1-3h-2l1-3 3-2h-1l-3 1c-1 2-3 0-1-1 0-1 0-3 5-4l4-2c1-1 1-1 0 0zm5 3-1 1 2-1h-1zm2 3-2 1h1l2-1 2-1-3 1zm6 2v1l1-2-1 1zm6 4c-3 7-10 17-11 15l-1-1 1-4 2-3-5 3-2 2-3 2-2 2-2 3-1 1-2-1-4 1-2 2v2l-2 1v1h-1l-2 1v1h-2l-2 2-14 8-4 1-4 2-4 5-2 2-2 1-1 6-3 1-2 2c1 0 12-3 19-7l14-6 13-8c13-10 25-22 30-30l2-2-2-1 1-1 2-4-2 1zm-21-5h1v-1l-1 1zm3 2v1l1-2-1 1zm-36-8c0-2 0-2 0 0zm-75-16-1 6 4-1 1-2-3-7-1 4zm42 13 1 3 2 3 2 2 1 3 2 2 1 5 5 6 5 3 2-4v-5h-1v-1l-1-2h-1v-3l-2-1-1-2h-3l-1-2-4-2-1-2c1-1 0-3-3-4l-3 1zm59 17 1 2 1-3-2 1zm4 5-5 6 7-6h-2zm7 4-2 1 2-1c2-1 2-1 0 0zm-69-16 2 1-2-1zm21 6-1 1 1 2h2v-1l-1-1-1-1zm33 10h-4 4l1-1-1 1zm-28-8-1 2 2-1-1-1zm-23-3 1 2-1-2zm42 12v1l-2 1h2l1-1 1-1h-2zm3 2 1 1 1-1h-2zm-11-2 1-1-1 1zm5 2s0 1 0 0h1-1zm-11-2c-2 1-5 2-6 0h-6l-1 1v2h15l5-1-7-2zm8 2 1 1 1-2-2 1zm-178-23-1 3h-1l-2 2h-2l-4-2c-2 0-3 1-2 4v5l-1 5c0 3 2 3 5 6h2l2-2a71 71 0 0 0 5-10l1-2 1-2-3-7z"/></g></g></defs><g id="t"/><g id="u"/><use xlink:href="#c"/></svg>