<svg viewBox="0 0 150 50" xmlns="http://www.w3.org/2000/svg" xmlns:xlink="http://www.w3.org/1999/xlink"><style>text{dominant-baseline:central;fill:#ffd800;text-anchor:middle}</style><defs><path d="M25.6 45.4a20.4 20.4 0 11.7 0" id="a"/></defs><rect width="150" height="50" rx="5" fill="#0056b3"/><circle cx="26" cy="25" r="23.3" fill="#3c3185" stroke="#FFD800" stroke-width=".9"/><circle cx="26" cy="25" r="16.9" fill="#3b5998" stroke="#fc0" stroke-width=".8"/><path d="M38.3 29.4c.4.4.8.8 1.3.9a2.4 2.4 0 00-.3-1 12.3 12.3 0 00-1.1-2.6c.4.4.8.9 1.3 1a4.1 4.1 0 00-.3-1.2 6.5 6.5 0 00-1.5-2.2c.5.2 1 .5 1.5.5a6.8 6.8 0 00-.8-1.4 9.7 9.7 0 00-2.8-2.5c.4 0 .8 0 1.3-.2a2 2 0 00-.6-.6 4 4 0 00-1-.7 4.1 4.1 0 01.2-.7l.6-1a2 2 0 00.4-1.2c-.2 0-.5.1-.6.3a5.2 5.2 0 00.3-3.4 3 3 0 00-1.2-1.7 2.5 2.5 0 000 1.1 4 4 0 00-1-.8c0 .6.5 1.2.3 1.8 0 .3-.2.4-.3.6v-.7a1.3 1.3 0 00-.5-.7l-.2.9V15c0 .4-.4.6-.7.9 0-.3.1-.6 0-.8a1.6 1.6 0 00-.3-.6c-.3.4-.3 1-.5 1.5a1.2 1.2 0 01-.4.6 1.9 1.9 0 01-1 .4 3 3 0 001-1.2 8.1 8.1 0 00-1.9.3l-1.1.4a2.4 2.4 0 00.7-1 6 6 0 00-3 .8h-.4a5.8 5.8 0 00-3-.8c.1.4.4.8.7 1a9 9 0 00-2.8-.7 2.3 2.3 0 00.7 1.2 2.3 2.3 0 01-1-.3 1.2 1.2 0 01-.4-.7c0-.6-.1-1-.4-1.5a1.4 1.4 0 00-.3.7v.6c-.3-.2-.7-.4-.8-.9v-1a4.1 4.1 0 000-.9c-.5.3-.6.9-.6 1.4a1.2 1.2 0 01-.3-.9l.2-1.5a3.5 3.5 0 00-1 .8 4.1 4.1 0 00.1-.4v-.7a2.9 2.9 0 00-.7.7 3.6 3.6 0 00-.6 2.7c0 .5.2 1.1.4 1.7a1.2 1.2 0 00-.6-.3c0 .6.3 1 .5 1.4a4 4 0 01.7 1.5 3 3 0 00-.6.3 2.7 2.7 0 00-1 1l1.3.2a8.6 8.6 0 00-1 .7 8 8 0 00-2.6 3.2 3.5 3.5 0 001.5-.6l-.5.6a5 5 0 00-1.3 2.8c.6 0 1-.5 1.3-1l-.4 1a10 10 0 00-1 2.7c.7 0 1-.5 1.4-.8a5 5 0 00-.9 3A4.8 4.8 0 0013 34a1.9 1.9 0 00.8-.8l.4-.8-.1 1c0 1 .2 2.2.6 3.2.7-.3 1.2-1.1 1.6-1.8 0 .4-.2 1-.1 1.4a3.4 3.4 0 00.3 1.7 3 3 0 001.8-1.9 5.1 5.1 0 00.6 2 2.7 2.7 0 00.8.8 3 3 0 001.9-1.9c.5.8 1.1 1.5 2 2 .1.1.3.3.5.3a4.7 4.7 0 001.5-1.3l.4-.4c.5.6 1 1.3 1.8 1.7l.4-.1a7 7 0 002.1-2.2c.2.5.5 1 .8 1.2a2.7 2.7 0 001.2.7 3.4 3.4 0 001-1.6l.3-1.1a3 3 0 001.8 1.8 3 3 0 00.3-1.4 7.5 7.5 0 000-1.7l.4.8c.3.4.7.8 1.1 1a7 7 0 00.5-4.2c.3.6.6 1.2 1.1 1.6a4.1 4.1 0 00.4-1.7 5.2 5.2 0 00-.9-2.8z" fill="#FC0"/><path fill="#3b5998" d="M20 24.8a3.2 3.2 0 01.8 0c-.4.4-.5 1-.1 1.5a1.1 1.1 0 001.5.4 1 1 0 00.4-.6 1.4 1.4 0 000-.6c.3.2.5.4.5.6.2.3 0 .6-.1.7a1.7 1.7 0 01-1.9.7 1.5 1.5 0 01-1-.7 2.3 2.3 0 01-.1-2zm11 0a3.7 3.7 0 01.8 0 2.3 2.3 0 01-.2 2c-.4.6-1 .8-1.6.7a1.6 1.6 0 01-1-.5c-.1-.2-.3-.4-.2-.6 0-.4.2-.6.5-.8a1.1 1.1 0 000 .8c.3.4.9.6 1.3.5a1.1 1.1 0 00.8-.8c.2-.3 0-1-.3-1.2zm-5.4 3c.1-.2.4-.2.6 0l.1.2a16.9 16.9 0 01-.3 4 1.2 1.2 0 010 .3c-.3-.6-.3-1.1-.4-1.7a17.4 17.4 0 010-2.5v-.4zm1.1 1.6c0 .3.3.6.4.8.1 0 .2.2 0 .4l-.6.3a5.3 5.3 0 00.2-1.5zm-2 .9c0-.3.3-.5.4-.9 0 .6 0 1 .2 1.5a5 5 0 00-.5-.3l-.2-.3z"/><text textLength="104.5"><textPath xlink:href="#a" startOffset="50%" style="font:700 5.25px Arial,serif" dominant-baseline="central">Ibis redibis nunquam per bella peribis</textPath></text><g style="font:italic 700 22px Arial,sans-serif"><text x="100" y="20">ORDILO</text><text x="100" y="35" font-size="11">Сховище дампів</text></g></svg>