<svg xmlns="http://www.w3.org/2000/svg" viewBox="0 0 150 50" xmlns:xlink="http://www.w3.org/1999/xlink"><defs><path d="M26 256a230 230 0 10460 0" id="a"/><path d="M58 256a198 198 0 01396 0" id="b"/></defs><rect width="150" height="50" rx="5" fill="#0056b3"/><path d="M2 25a24 24 0 1048 0 24 24 0 10-48 0" fill="#ffd800"/><path d="M3.1 25A22.95 22.95 0 1049 25a23 23 0 10-46 0" fill="#3c3185"/><path d="M8.6 25a17.4 17.4 0 1034.8 0 17.4 17.4 0 10-34.8 0" fill="#fee006"/><path d="M9.7 25a16.3 16.3 0 1032.6 0 16.3 16.3 0 10-32.6 0" fill="#3b5998"/><g fill="none" stroke="#FFD800" stroke-width=".3"><path d="M32.7 11c2.5 1.2 4.2 3.5 3.7 5s-2.9 2-5.4.8c-2.7-1.2-4.3-3.4-3.8-5s3-2 5.5-.8"/><path d="M36.8 11.9c3 2.8 5 6.3 4.7 9.4-.3 5.1-5.7 7.4-12.1 5-6.4-2.2-11.3-8.1-11-13.1a6 6 0 012-4.2"/><path d="M41.8 31.2a12.2 12.2 0 01-7.5 2.7c-8.7.4-18.3-5.9-21.5-14a17 17 0 01-1-4m20.2 25c-8.4.1-17.6-5.4-22.8-13.5M15.8 12c8.1-3.9 20 .5 26.3 9.6a26.2 26.2 0 01.7 1"/><path d="M15.1 38c-.3-1-.3-1.8-.4-2.8a21.8 21.8 0 0115.4-22c2.8-.8 5.6-.8 8 0"/><path d="M30.9 11c5.6 7 5.2 18.5-.9 25.5a15.5 15.5 0 01-8 5m5.9-33.3a16.7 16.7 0 013 2.8"/></g><g fill="#FFD800" text-anchor="middle"><g style="font:700 49px Arial,serif"><text dx="0 10 10 10 10 10 10 10 10 10 10 10 10 10 10 10" transform="translate(2 1) scale(.09375)"><textPath xlink:href="#a" startOffset="50%">PRO BONO PUBLICO</textPath></text><text dx="0 7 7 7 7 7 7 7 7 7 7" transform="translate(2 1) scale(.09375)"><textPath xlink:href="#b" startOffset="50%">МИРОТВОРЕЦЬ</textPath></text></g><path d="M28.8 9.3h-.6l-.1.1H28l-.2.1c-.3 0-.3.1 0 .1v.1H27l-.4-.2v-.2l.1.1h-1.4l.4.1h.3c0 .1 0 .1 0 0l-.4.1h1v.2h.3l.8.1h.7-.2.6l-.3-.2h-.4l1 .2-.2.1h.3v-.2l.6.1.1.2.6.2.3.2.7.2v-.1l-.4-.2h.2l.4.2.8.3c.3.1 1 .7 1 .9l.6.4.3.3.3.1v-.2l.3.3.3.2-.1-.2.4.3.4.3.2-.1-.2-.1.1-.1H36l.1-.2h-.2v-.2l-.6-.3-.3-.3-.3-.2-.3-.2-.2-.3-.8-.5-2.4-.7-1.5-.6-.6-.2zm-.8.5h-.1zm3 .2h.2-.1z"/><path d="M27.6 9.3l-.1.1h.3-.2zm-.3.1h.1zm2 .5v.2h.4V10h-.4zm-3-.7H26a12 12 0 00-3.4.4h.4a7.6 7.6 0 011.9-.2c-.1-.2 0 0 .5 0a15.5 15.5 0 001-.2zm3.8 1v.2l.6.2v-.1l-.7-.2zm-.6 0h.2l-.1-.1-.1.2zm-.8-.1h-.4c-.1 0-.1 0 0 0h.7-.3zm2 .5h-.1l.3.1-.1-.1zm-1.5-.3h.2v-.1h-.2zm1 .3h.1zm-1.6-.4h-.2v.4c.2 0 0 0 0 0v.3h.8v-.2h-.4l.2-.1.5.2-.2-.3-.2-.1h-.2l.1-.1-.4-.1zm.1 0h-.2.2zm.8.3v-.1zm.2 0l.1.2c.1 0 .1 0 0 0v-.2h-.1zm-2.2-.2l-.8-.1-.7-.2-.8-.2-.4.1v-.2l-.1.1h-.3a2.7 2.7 0 00-1.4.2v.2h.8l.1.2v.2c.2 0 .2.2.1.2l.3.2.2.1V11l.2.1v.1h.5l.6.2h.7l.8.1.2.1h.3l.2-.2c-.1 0 0 0 0 0l.2.1v-.9H28l.2-.1-.6-.2-.1-.1h-.1zm8.8 3v.2-.2h-.2zm-.5 0zM23.1 11H23v.1l-.3.1-.2.1.1.1c.1.2.2.3.6 0v-.3h.3l-.2-.2-.1.1zm3.7 1.1l-.2.1-.1.1-.1.1h.6v-.3h-.4zm.4.1v.2H27l.4.1-.2-.3zm-.5.3zm-2.3.7l-.3-.1H23l-.2.2h.1l-.5-.1c0-.2 0-.1-.5 0h-.1l-.1.2h-.1l-.2.2h.5l-.2.3-.4.3-.3.1v.1h.9l.3-.1c.1.2.2.1.3 0 .1-.3.4-.5.7-.4l.5-.2.4.2v.1h-.4l-.6.3-.3.2.2.3h.7l.3-.1.2-.1.3-.4.3-.2h.2l.2-.3.2.1v-.2h.2v-.1l-.7-.2-.4-.1zm-2.3 0zm-1-.6h-.3v.1h-.2v.1h-.2s.2 0 0 0l-.1.1h-.1l-.1.2c-.1 0-.2.2-.3 0s0 0-.2.2v-.1h-.3c.1.3 0 .3-.2.2H19l.1.2h.1l.1.2h.4v-.2l.3-.1v-.1l.3-.2.2-.3h.4v-.1h.2v-.2zm-1.2 0l-.3.1-.3.2h.7v-.1c.3 0 .2-.2 0 0l-.1-.2z"/><path d="M21 14.1l-.3.2h-.1v.1l-.7-.2h-.2L19 14h-.2l-.1-.1-.1.2-.5.6h-.5l-.1-.1v-.4h-.1l-.6.2c-.6.4-.7.5-.6.7l-.1.3-.1.1.2.1v.2h.4c.2-.3.5-.4.6-.2l.4-.2.1.1v.1l.1.2h.1l.3.2v.3l-.5 1.2-.1.3-.2-.2-.2-.2-.1.4h.7v-.1c.1-.3.2-.3.4-.2v.2-.5l.1-.2.1-.6.2-.2c.3-.3.3-.3.4-.1h-.1c-.1 0-.1 0 0 0l-.2 1v.2l-.1.2-.3.5v.5l.1.1.1.1.1-.5.2-.1v.2l.2-.1.2.1.1.2h.2l.1-.4h.3l.3-.1v-.1l.3-.1h.4v.4h-.2c0 .1 0 .3.2.3h.1l.1-.2.4-.1.6.1h.1l.1-.1.1-.2v-.1l-.2-.2v-.2H22v-.6l-.1-.2v-.1l.2-.1.1-.4.2-.5.3-.2.2-.2V15l-.5-.2v.2l-.3.2V15h-.5l-.1.6-.1-.2v-.1h-.3l.1-.1-.3-.1-.3-.2.1-.2v-.1l-.1-.1.1-.2h.1l.3-.2h.2-.4z"/><path d="M20.8 14.3h.1zm1 .5l.2-.2h-.2zm.4 0v.2l.2-.1h-.1zm13.2 4.7l-.4.2v.3c0 .6 0 .6-.2.5s-.4 0-.5.2l-.6.2-.1-.1-.8-.1-.3-.3H32l-.2.4-.6-.2c0-.1-.2-.2-.7 0l-.5.3.1-.1-.3-.1-.1-.2-.4-.3H29l-.3-.4-.2-.4v-.2h-.6l-.1-.1-.2-.1c0-.3-.2-.5-.4-.4h-1.1v.2l-.2.1v.4l-.5-.1v-.1l-.1-.2h-.5l-.1-.3-.3-.2c-.2-.2-.6 0-.6.1l-.1-.2-.2.3-.3.9h-.4v.3l-.2.5c.1.1 0 .1-.2.1h-.2v-.3L22 20h-.1l-.4-.5v.4h-.6c-.2 0-.3-.4-.4-.5s-.2-.4-.5-.5h-.5l-.3-.2-.4.1h.2l-.2.1v.1h-.2v.6c0 .3.2.3.4.3l.2.3.4.1.1.2-.2.1-.2.2-.3.5-.3.1h-.3l-.2-.2-.3-.2-.2-.2-.2-.4h-.1l-.1-.4-.1-.1-.2-.4h-.3c-.2.3-.4.3-.3.2l-.2-.4.1-.4-.1-.5V18l.1-.1.2-.3.2-.2v-.5l-.2-.1v-.1L16 16l-.2-.2v-.3h-.5s-.3 0-.5.2l-.2.2h-.3v.1H14l-.2.3c-.4 0-.5 0-.6.4l-.8 1c-.2.2-1 1.9-1 2.9l-.1.8v.4l.2.4c.2 0 .3.3.3.6v.4l.1.4v.3l-.1 1-.1.7v.6a33.8 33.8 0 000 1.6l-.1.7v.6l.8 2.8c.7 1.5.7 1.5 1.2 2.1.3.4.6.5.8.2v-.4h.3c.3 0 .3 0 0-.6V33l.3-.1h.4l.5-.1v-1.1l-.1-.7v-.5l.5-.4V30h.4l.7-.3c.5-.1.8-.2 1.4-.7a5.3 5.3 0 00.7-.6V28c.2-.1.1-.1 0-.2l-1.3-.3-.3-.2-.1-.2V27l.1-.1a3.7 3.7 0 00-.3-1.2h-.1v-.9l.2-.7V23l.1-.6a21 21 0 00.1-.7l.1.3c.3 0 .3 0 .3.6l-.2.5.1.3V26c-.2.2-.3.9 0 .9l1.1.3h.9c0-.1.2-.2.6-.1h.5l.2-.1h.3v-.2l.4-.2v-.1l.4-.2-.3-.5c-.3-.1-.2-.3-.2-.5V25l-.2.2c-.4.2-.5.2-.6 0L21 25l.1-.6-.2.1v.2-1.5h.2l.1.1.1.3v.4l.3.3c.2.4.2.4.6.5.1 0 .1 0 0 .1l.1.2.5.3.5.3h.5l.5.2.1.1v.2l.1.1v.2h.2v.2l.4.2c.2 0 0 0-.1.2l-.3-.1.2.2.2.4h.2l.1-.2.2-.3-.2.6a4.3 4.3 0 00.2 2l.2 1c0 .2.1.4.3.4V31h.3l.3-.3.2-.5.3-.8h.1l.4-.2.3-.2.4-.3.4-.1.3-.3.4-.2s.2-.1 0 0l.3-.1h.3l.2-.1.1.3.2.4h-.1.2v.4l.2.1v.5l-.1.2v.2l.3-.1.2-.1v-.1h.2l.1.2.1.6v.3l-.3 1c.2 0 .4.4.4.8s0 .6.3.7l.3.1.2-.4-.1-.3-.4-.6-.2-.3v-.6l.1-.4.2-.3v.2c.4.1.5.1.5.4h.1v.2h.3v.5l.2-.2v-.2h.2l.2-.2h.3l.3-.5c0-.4 0-1-.3-1l-.2-.4-.1-.5v-.1l.6-.4h.1l.1.2h.1l.3-.2.3-.2V28h.2l.3-.2.3-.2.2-.4.2-.2a3 3 0 01.3-1v-.3l-.1-.2h-.1v-.1l.3-.1-.2-.1v-.3l-.3-.2v-.3h-.2c0-.2.2-.6.4-.7v-.1l-.2-.1h-.2l-.2.2-.1-.2v-.3l.2-.2.1-.3h.1l.1.2v.1h.1l.4-.2v.4c.3 0 .5.1.4.2v.7h.2l.2-.5-.3-.8c-.2 0-.2-.1 0-.4v-.9l-.1-.3v-1l-.2.2-.2.1-.1-.2-.3-.2h-.3c-.4-.5-.4-.7-.7-.6zm3.3.8l-.2.1h-.3v.2l.2.3-.1.2v.2h.2V21l.3-.1-.1-.2v-.4zm0 1.1l-.1.1v1.2l-.1.1v.3l-.1.1-.4.5v.3l.2-.1v-.1c0-.3.3-.4.4-.2l.1-.1v-.2l.3-.3c0-.2 0-.2 0 0l.1-.3-.3-.7c.1-.3-.1-.6-.1-.6z"/><path d="M17.8 16v.2-.1zm-.9-.2l.1.1zm.4.6l-.1.3.4-.2c.2-.3-.1-.2-.3-.1zm21 7.4v.3c.2 0 0 0 0 0l.2-.1v-.2h-.1zM18 18.4v.4h.1l.1-.2v-.2H18zm20 5.7v.2c0 .1.1 0 .1 0v.2l.2.1v-.4c0-.2-.1-.2-.3-.1zm-20.1-5l.2.5v-.3l-.3-.1zm.7.5zm.4.7l.3.2h.1l-.4-.2zm17.9 6.8l-.1.4v.2l.2-.3c0-.4 0-.7-.1-.3zm0 1.6l-.2.8v.2-.1l.2.2s-.1.2 0 0l.2.2v-.2h.3l-.1-.1h-.4v-.5l.2-.4c0-.2 0-.2-.3-.1zm-2.4 0c0 .1-.2.2-.1.3 0 .3.3.1.4 0s0-.3-.3-.3zm3.1 1.3v.2h.1V30zm-.2.2zm-.6-.2v.2-.2zm.7.3c0-.1 0-.1 0 0zm-.5.1c0 .2 0 .3 0 0h.2-.2zm.4.1c0 .1-.1.3 0 .2v-.4.2zm-.2.1v.3c.2-.4 0-.6 0-.3zm.3.1v.2l-.1.1-.3.2-.1.4v-.2l.2-.1v.2h.2s.2 0 .1-.1v-.1l.2-.1v-.6l-.2.1zm-1 0v.1zm3.8 1.1v.2-.2h.1-.1zm-.8.2l-.3.2-.3.4-.2.2-.1-.2v-.1l-.3.2H38l.2.2v-.1c-.1.2-.2.2-.1.3v.2c0-.2.2-.3.3-.1V33h.2l-.1.5h.1l.2-.2h.1l.4-.2.2-.2.2-.4v-.3l-.4-.3zm-3.4-.8h.1zm-.2.6h-.1v.2l-.2.2-.3.1-.4.3-.4.3-.1.3-.2.1H34l-.1.1-.2.2v.3l.2.1-.1.2.5.2.2-.1h.3a.6.6 0 00.4-.4l.2-.2.2-.3.3-.2.1-.1-.1-.1-.1-.1v-.4l.1-.2h.1l.1-.2h.1l-.3-.2v-.1zm1.7.6v.5l.1-.1v-.1l.1-.3h.1-.3zm-.5.4h-.4l-.4.2H36v.4l-.3.5-.2.7.2-.1.1-.4.1-.2h.1v.3h.1l.2-.1.1-.3h-.2l.1-.3.3-.2h-.1l-.3.1c0 .2-.3 0 0 0 0-.2 0-.3.4-.4l.4-.2c0-.1 0-.1 0 0zm.4.3h.1zm.2.2l-.2.1h.2l.2-.1h-.3zm.6.2v.1-.2.1zm.6.4c-.3.7-1 1.6-1 1.4h-.2l.1-.5.2-.2-.5.2-.1.2-.3.2-.2.2-.2.3h-.8l-.1.3v.2h-.2v.1h-.1l-.2.1v.1H35l-.2.2-1.3.8h-.4l-.4.3-.3.4-.2.2-.2.1-.1.6h-.3l-.2.2c.1 0 1.2-.2 1.8-.6l1.3-.6 1.2-.7c1.3-1 2.4-2 2.9-2.8l.1-.2-.1-.1v-.1l.2-.4-.2.1zm-2-.5zm.3.2v.1-.2.1zm-3.4-.7c0-.2 0-.2 0 0zm-7-1.5l-.1.5h.3l.1-.2-.3-.7v.4zm3.9 1.2v.3l.3.3.2.1v.3l.2.2.1.5.5.5.5.3.2-.3v-.5h-.1v-.1l-.1-.2h-.1v-.3H32l-.1-.3h-.3v-.2l-.5-.1v-.2c0-.1 0-.3-.3-.4h-.3zm5.5 1.6l.1.2.1-.3h-.2zm.4.5l-.5.5.7-.5h-.2zm.7.3l-.2.1h.2c.1-.2.1-.2 0 0zm-6.5-1.5l.2.1h-.2zm2 .6h-.1v.3h.2v-.2l-.1-.1zm3 1h-.3.4v-.2.1zm-2.6-.8v.2l.1-.1v-.1zM31 34v.2-.2zm4 1.1v.1l-.3.1h.3V35zm.2.2v.1h.2-.2zm-1-.2zm.4.2s0 .1 0 0h.1zm-1-.2c-.2.1-.5.2-.6 0h-.5l-.1.1v.2h1.8l-.6-.3zm.7.2l.1.1.1-.2-.2.1zm-16.6-2.1l-.1.2h-.1l-.2.2H17l-.4-.2c-.2 0-.3.1-.2.4v1c0 .2.1.2.4.5h.2l.2-.2a6.7 6.7 0 00.4-1l.1-.1.1-.2-.2-.6z"/><g style="font:700 12px Arial,serif"><text x="100" y="23" textLength="90">MYROTVORETS</text><text x="100" y="36">NEWS</text></g></g></svg>